<svg width="360" height="500" viewBox="0 0 360 500" fill="none" xmlns="http://www.w3.org/2000/svg">
<path d="M0 24C0 10.7452 10.7452 0 24 0H336C349.255 0 360 10.7452 360 24V476C360 489.255 349.255 500 336 500H24C10.7452 500 0 489.255 0 476V24Z" fill="black"/>
<path d="M260 0H340C351.046 0 360 8.95431 360 20V100H280C268.954 100 260 91.0457 260 80V0Z" fill="white"/>
<path d="M360 124V100H336C349.255 100 360 110.745 360 124Z" fill="white"/>
<path d="M260 24V0H236C249.255 0 260 10.7452 260 24Z" fill="white"/>
</svg>
