<svg width="360" height="500" viewBox="0 0 360 500" fill="none" xmlns="http://www.w3.org/2000/svg">
<path d="M0 24C0 10.7452 10.7452 0 24 0H336C349.255 0 360 10.7452 360 24V476C360 489.255 349.255 500 336 500H24C10.7452 500 0 489.255 0 476V24Z" fill="black"/>
<path d="M260 424C260 410.745 270.745 400 284 400H360V476C360 489.255 349.255 500 336 500H260V424Z" fill="white"/>
<path d="M236 500H260V476C260 489.255 249.255 500 236 500Z" fill="white"/>
<path d="M336 400H360V376C360 389.255 349.255 400 336 400Z" fill="white"/>
</svg>
