<svg width="43" height="43" viewBox="0 0 43 43" fill="none" xmlns="http://www.w3.org/2000/svg">
<path d="M32.9219 0H10.0781C4.51213 0 0 4.51213 0 10.0781V32.9219C0 38.4879 4.51213 43 10.0781 43H32.9219C38.4879 43 43 38.4879 43 32.9219V10.0781C43 4.51213 38.4879 0 32.9219 0Z" fill="white"/>
<path d="M32.9219 0H10.0781C4.51213 0 0 4.51213 0 10.0781V32.9219C0 38.4879 4.51213 43 10.0781 43H32.9219C38.4879 43 43 38.4879 43 32.9219V10.0781C43 4.51213 38.4879 0 32.9219 0Z" fill="#1D9BF0"/>
<path d="M33.522 15.3542C33.5405 15.6208 33.5405 15.8873 33.5405 16.1564C33.5405 24.3528 27.3008 33.8057 15.8912 33.8057V33.8007C12.5206 33.8056 9.2198 32.8402 6.38297 31.02C6.87311 31.0789 7.36559 31.1083 7.85942 31.1095C10.653 31.1117 13.3662 30.1747 15.5631 28.449C14.2688 28.4246 13.0144 27.9962 11.9754 27.2239C10.9364 26.4516 10.1647 25.3739 9.76822 24.1415C10.6975 24.3207 11.6556 24.2841 12.5686 24.0347C9.67482 23.45 7.59285 20.9074 7.59285 17.9545V17.8759C8.45552 18.3564 9.42099 18.6227 10.408 18.6523C7.68255 16.8306 6.84237 13.2047 8.48813 10.3697C10.0454 12.2861 11.9884 13.8534 14.1909 14.9699C16.3934 16.0864 18.8062 16.727 21.2724 16.8503C21.0265 15.7918 21.0628 14.6873 21.3777 13.6473C21.6926 12.6073 22.2751 11.6681 23.0668 10.9239C25.5652 8.57531 29.4945 8.69574 31.843 11.1928C33.2321 10.9185 34.5642 10.4093 35.782 9.68693C35.319 11.1232 34.3499 12.3423 33.0552 13.1175C34.2849 12.9727 35.4857 12.6435 36.6174 12.1411C35.7849 13.3878 34.7367 14.4757 33.522 15.3542Z" fill="white"/>
</svg>
