<svg width="57" height="40" viewBox="0 0 57 40" fill="none" xmlns="http://www.w3.org/2000/svg">
<g clip-path="url(#clip0_52_80)">
<path d="M55.6325 6.23889C55.3062 5.03301 54.6697 3.93365 53.7863 3.05028C52.903 2.16692 51.8037 1.53036 50.5978 1.204C46.1832 0 28.4156 0 28.4156 0C28.4156 0 10.6472 0.0364443 6.23249 1.24044C5.0266 1.56682 3.92725 2.20341 3.04392 3.08682C2.16059 3.97023 1.52409 5.06964 1.19782 6.27556C-0.137513 14.1196 -0.655513 26.072 1.23449 33.6022C1.56079 34.8081 2.1973 35.9075 3.08063 36.7908C3.96396 37.6742 5.06329 38.3108 6.26915 38.6371C10.6838 39.8411 28.4518 39.8411 28.4518 39.8411C28.4518 39.8411 46.2196 39.8411 50.634 38.6371C51.84 38.3108 52.9393 37.6742 53.8227 36.7909C54.7061 35.9075 55.3426 34.8081 55.6689 33.6022C57.0774 25.7471 57.5114 13.802 55.6325 6.23889Z" fill="#FF0000"/>
<path d="M22.7607 28.4578L37.5003 19.9205L22.7607 11.3831V28.4578Z" fill="white"/>
</g>
<defs>
<clipPath id="clip0_52_80">
<rect width="56.8889" height="40" fill="white"/>
</clipPath>
</defs>
</svg>
