<svg width="48" height="48" viewBox="0 0 48 48" fill="none" xmlns="http://www.w3.org/2000/svg">
<path d="M43.5 1.12505H4.5C3.61512 1.11605 2.7628 1.45844 2.13007 2.07711C1.49734 2.69578 1.13588 3.54019 1.125 4.42505V43.5826C1.13785 44.4661 1.50017 45.3086 2.13269 45.9256C2.7652 46.5427 3.6164 46.8841 4.5 46.8751H43.5C44.3849 46.8821 45.2367 46.5385 45.8691 45.9195C46.5015 45.3004 46.8631 44.4562 46.875 43.5713V4.4138C46.8592 3.53153 46.4958 2.69115 45.8639 2.07532C45.2319 1.45949 44.3824 1.11799 43.5 1.12505Z" fill="#0076B2"/>
<path d="M7.89742 18.2738H14.6887V40.1251H7.89742V18.2738ZM11.2949 7.3988C12.0738 7.3988 12.8353 7.62983 13.4829 8.06265C14.1305 8.49548 14.6351 9.11065 14.9331 9.83035C15.231 10.5501 15.3087 11.3419 15.1565 12.1059C15.0043 12.8698 14.6289 13.5713 14.0778 14.1219C13.5268 14.6724 12.8248 15.0471 12.0608 15.1986C11.2967 15.3501 10.5049 15.2716 9.78551 14.973C9.06609 14.6744 8.4514 14.1691 8.01919 13.5211C7.58698 12.8731 7.35668 12.1115 7.35742 11.3326C7.35842 10.2889 7.7737 9.28836 8.51202 8.55074C9.25033 7.81313 10.2513 7.3988 11.2949 7.3988ZM18.9487 18.2738H25.4587V21.2738H25.5487C26.4562 19.5563 28.6687 17.7451 31.9724 17.7451C38.8499 17.7301 40.1249 22.2563 40.1249 28.1251V40.1251H33.3337V29.4938C33.3337 26.9626 33.2887 23.7038 29.8049 23.7038C26.3212 23.7038 25.7287 26.4638 25.7287 29.3288V40.1251H18.9487V18.2738Z" fill="white"/>
</svg>
