<svg width="48" height="48" viewBox="0 0 48 48" fill="none" xmlns="http://www.w3.org/2000/svg">
<g clip-path="url(#clip0_52_77)">
<path d="M45.0181 0H2.31492C0.85224 0 -0.333496 1.18574 -0.333496 2.64842V45.3516C-0.333496 46.8143 0.85224 48 2.31492 48H45.0181C46.4808 48 47.6665 46.8143 47.6665 45.3516V2.64842C47.6665 1.18574 46.4808 0 45.0181 0Z" fill="#3D5A98"/>
<path d="M27.3645 46.1888V29.0025H33.132L33.9945 22.305H27.3645V18.03C27.3645 16.0913 27.9045 14.7675 30.6832 14.7675H34.2307V8.76751C32.5129 8.58848 30.7866 8.50335 29.0595 8.51251C23.952 8.51251 20.4345 11.625 20.4345 17.3663V22.305H14.667V29.0025H20.4345V46.1888H27.3645Z" fill="white"/>
</g>
<defs>
<clipPath id="clip0_52_77">
<rect width="48" height="48" fill="white"/>
</clipPath>
</defs>
</svg>
